<?xml version="1.0" encoding="utf-8"?>
<!-- Generator: Adobe Illustrator 26.1.0, SVG Export Plug-In . SVG Version: 6.00 Build 0)  -->
<svg version="1.1" id="Layer_1" xmlns="http://www.w3.org/2000/svg" xmlns:xlink="http://www.w3.org/1999/xlink" x="0px" y="0px"
	 viewBox="0 0 1024 1024" style="enable-background:new 0 0 1024 1024;" xml:space="preserve">
<style type="text/css">
	.st0{fill:#EA3A3B;}
</style>
<g>
	<path class="st0" d="M390.9,106.8l525.8,525.8L633.1,916.2L107.3,390.4L390.9,106.8 M390.9,46.6c-16,0-31.3,6.4-42.6,17.7
		L64.7,347.8c-23.5,23.5-23.5,61.7,0,85.2l525.8,525.8c11.8,11.8,27.2,17.7,42.6,17.7c15.4,0,30.9-5.9,42.6-17.7l283.6-283.6
		c11.3-11.3,17.7-26.6,17.7-42.6c0-16-6.4-31.3-17.7-42.6L433.5,64.2C422.2,52.9,406.9,46.6,390.9,46.6L390.9,46.6z"/>
	<path class="st0" d="M747.8,56.4C686,24.3,616.8,4.4,543.5,0h-62.4l161.6,161.6l60.2-60.2c47.3,22,90.9,52.4,128.9,90.4
		c74.2,74.2,119.5,169.7,130,272.8h60.5C1006.1,286.6,899,134.9,747.8,56.4z"/>
	<path class="st0" d="M276.2,967.6c61.8,32.1,131,52,204.3,56.4h62.4L381.4,862.4l-60.2,60.2c-47.3-22-90.9-52.4-128.9-90.4
		C118,758,72.8,662.5,62.2,559.5H1.8C17.9,737.4,125,889.1,276.2,967.6z"/>
</g>
</svg>
